<svg width="119" height="45" viewBox="0 0 119 45" fill="none" xmlns="http://www.w3.org/2000/svg">
<path d="M80.473 0.180857C83.527 0.140857 86.575 0.400857 89.618 0.642857C90.017 0.690857 90.462 0.675857 90.796 0.943857C93.8602 3.05422 96.8414 5.28256 99.733 7.62386C103.234 10.5199 106.663 13.5539 109.53 17.1089C110.784 18.7059 111.969 20.4009 112.682 22.3229C112.933 23.0429 113.171 23.7929 113.101 24.5709L113.363 24.6699C113.31 24.7249 113.208 24.8329 113.155 24.8859C111.031 19.6739 106.873 15.6949 102.687 12.1329C98.751 8.88086 94.528 5.99586 90.154 3.38286C89.864 3.20086 89.548 3.05486 89.204 3.03786C87.301 2.83786 85.399 2.53486 83.481 2.58786C83.221 2.56186 82.805 2.67586 82.941 3.02286C83.274 4.20486 84.116 5.14586 84.777 6.15286C82.408 5.00486 79.995 3.91286 77.817 2.42286C77.287 2.00986 76.584 1.60986 76.477 0.877857C76.586 0.580857 76.928 0.509857 77.19 0.417857C78.263 0.167857 79.376 0.174857 80.473 0.180857ZM24.375 8.23986C24.777 8.30586 25.278 8.32386 25.47 8.75586L25.113 8.45586C24.58 8.49786 24.059 8.40186 23.543 8.28886C17.449 7.21686 11.35 6.18886 5.253 5.14286C5.425 5.87386 5.595 6.60286 5.733 7.34086C10.691 9.50486 15.63 11.7509 20.316 14.4809C23.197 16.2209 26.173 18.0049 28.359 20.6309C25.593 18.6029 22.536 17.0279 19.491 15.4799C14.421 12.8879 9.249 10.5119 4.057 8.18486C3.796 8.08186 3.663 7.82286 3.517 7.59886C2.35363 5.68702 1.18129 3.78067 0 1.87986C8.13 3.97486 16.245 6.14386 24.375 8.23986ZM12.842 4.13186C18.242 4.94586 23.697 5.49986 29.112 6.24486C31.306 9.28786 33.409 12.4299 36.026 15.1229C36.709 15.9589 37.817 16.0769 38.788 16.3299C44.364 17.6249 49.985 18.7009 55.581 19.8899C56.863 20.9069 58.111 21.9769 59.355 23.0459C57.219 22.3669 55.219 21.1989 52.97 20.9379C47.054 19.9379 41.144 18.9129 35.228 17.9109C32.658 14.6869 30.08 11.4679 27.51 8.24086C27.355 8.00986 27.045 8.01886 26.812 7.93086C21.922 6.70586 17.054 5.39086 12.164 4.18286C12.388 4.16486 12.615 4.14586 12.842 4.13186ZM94.716 10.0479C96.005 12.0479 96.306 14.5239 96.206 16.8609C91.184 16.1029 86.158 15.3599 81.134 14.6089C80.299 14.4839 79.494 14.7989 78.689 14.9609C71.396 16.6079 64.117 18.3149 56.819 19.9389C64.348 17.3009 71.949 14.8609 79.494 12.2719C80.164 12.0399 80.864 12.3159 81.536 12.4149C85.783 13.1599 90.026 13.9229 94.273 14.6649C94.523 11.8719 93.202 8.77286 90.538 7.64386C92.212 7.61886 93.793 8.67186 94.716 10.0479ZM10.552 13.0409C13.73 14.3809 16.858 15.8379 20.015 17.2269C16.099 20.4259 12.115 23.5409 8.161 26.6879C10.811 23.7479 13.673 21.0089 16.339 18.0789C14.275 16.3229 12.146 14.6399 10.137 12.8239C10.242 12.8779 10.449 12.9859 10.552 13.0409ZM109.196 19.4869C110.191 21.3129 111.118 23.1859 112.06 25.0449C108.666 23.9599 105.39 22.3869 102.534 20.2229C100.189 18.4079 98.043 15.9069 97.709 12.8269C100.405 16.5639 104.777 18.6899 109.196 19.4869ZM77.21 20.8849L77.613 20.8469C83.876 21.6699 90.135 22.5189 96.395 23.3519C100.205 23.8319 103.998 24.4209 107.815 24.8129C106.755 24.8709 105.695 24.8289 104.639 24.7429C95.78 24.2469 86.924 23.7409 78.067 23.2429C77.413 23.2229 76.773 23.3819 76.134 23.4899C68.564 24.8429 60.993 26.1719 53.424 27.5269C52.604 27.6499 51.792 27.9259 50.954 27.8389C59.726 25.6139 68.454 23.1859 77.21 20.8849ZM40.645 25.4199C43.609 26.4299 46.591 27.3849 49.551 28.4069C46.851 30.8529 44.189 33.3449 41.471 35.7699C42.488 34.0219 43.633 32.3569 44.695 30.6369C45.035 30.0499 45.511 29.5319 45.723 28.8769C40.562 26.6669 35.451 24.3279 30.324 22.0299C33.793 23.0639 37.199 24.3149 40.645 25.4199ZM79.165 24.6829C87.888 25.2059 96.622 25.5969 105.342 26.1769C102.251 27.7939 99.38 29.8199 96.749 32.1169C93.671 34.8869 90.894 38.1029 89.153 41.9129C88.985 41.5309 89.349 41.1809 89.439 40.8229C91.119 36.3349 94.011 32.3629 97.469 29.1059C98.097 28.4309 98.898 27.9459 99.495 27.2469C92.421 26.8089 85.342 26.3889 78.265 25.9889C73.551 26.4389 68.829 26.8849 64.121 27.3759C64.658 27.0939 65.262 27.0609 65.851 26.9809C69.811 26.2229 73.783 25.5129 77.744 24.7589C78.2114 24.6671 78.6904 24.6415 79.165 24.6829ZM27.229 30.1629C26.655 31.3729 26.177 32.6279 25.654 33.8609C24.29 33.8369 22.934 33.4909 21.574 33.7729C14.762 34.1109 8.348 38.6949 5.837 45.1249C6.219 41.4249 7.873 37.9069 10.353 35.1759C13.049 32.2359 16.773 30.2769 20.708 29.7659C22.883 29.5079 25.107 29.6089 27.229 30.1629ZM107.063 31.6189C111.751 31.6469 116.253 34.1509 119 37.9589C118.504 38.3499 118.153 39.0369 117.555 39.2289C115.623 37.6329 113.402 36.3649 110.97 35.7459C107.737 34.8659 104.257 35.0389 101.107 36.1639C97.109 37.5739 93.721 40.6489 91.95 44.5419C91.908 44.6949 91.828 45.0009 91.786 45.1549C91.7564 45.02 91.7257 44.8853 91.694 44.7509C92.246 40.8479 94.36 37.1919 97.46 34.7949C100.172 32.6619 103.623 31.4929 107.063 31.6189Z" fill="#F2F2F2"/>
</svg>
