<svg width="17" height="14" viewBox="0 0 17 14" fill="none" xmlns="http://www.w3.org/2000/svg">
<path d="M14.4742 2.26104C14.1175 1.92472 13.6939 1.65793 13.2277 1.47591C12.7615 1.29388 12.2618 1.2002 11.7572 1.2002C11.2526 1.2002 10.7529 1.29388 10.2867 1.47591C9.8205 1.65793 9.39693 1.92472 9.04019 2.26104L8.29982 2.9587L7.55945 2.26104C6.83885 1.58202 5.86151 1.20055 4.84244 1.20055C3.82336 1.20055 2.84602 1.58202 2.12542 2.26104C1.40483 2.94007 1 3.86102 1 4.8213C1 5.78159 1.40483 6.70254 2.12542 7.38157L2.86579 8.07922L8.29982 13.1997L13.7338 8.07922L14.4742 7.38157C14.8311 7.0454 15.1142 6.64627 15.3074 6.20697C15.5006 5.76768 15.6 5.29682 15.6 4.8213C15.6 4.34579 15.5006 3.87493 15.3074 3.43563C15.1142 2.99633 14.8311 2.5972 14.4742 2.26104V2.26104Z" stroke="black" stroke-linecap="round" stroke-linejoin="round"/>
</svg>
